<mxfile host="app.diagrams.net" modified="2023-11-16T09:13:29.987Z" agent="Mozilla/5.0 (Windows NT 10.0; Win64; x64) AppleWebKit/537.36 (KHTML, like Gecko) Chrome/119.0.0.0 Safari/537.36" etag="I_RDFFzioRjr3FWWKYQo" version="22.1.2" type="github">
  <diagram name="Page-1" id="rJegfg-RD4Lkl99qDs-G">
    <mxGraphModel dx="1537" dy="1084" grid="1" gridSize="10" guides="1" tooltips="1" connect="1" arrows="1" fold="1" page="1" pageScale="1" pageWidth="827" pageHeight="1169" math="0" shadow="0">
      <root>
        <mxCell id="0" />
        <mxCell id="1" parent="0" />
        <mxCell id="k3LRz-Mzqe3s_P5YPU48-1" value="Service Catalog" style="rounded=0;whiteSpace=wrap;html=1;fillColor=#1ba1e2;fontColor=#ffffff;strokeColor=#006EAF;verticalAlign=top;" vertex="1" parent="1">
          <mxGeometry x="280" y="180" width="310" height="160" as="geometry" />
        </mxCell>
        <mxCell id="k3LRz-Mzqe3s_P5YPU48-2" value="New VM" style="rounded=0;whiteSpace=wrap;html=1;fillColor=#60a917;fontColor=#ffffff;strokeColor=#2D7600;" vertex="1" parent="1">
          <mxGeometry x="450" y="230" width="90" height="60" as="geometry" />
        </mxCell>
        <mxCell id="k3LRz-Mzqe3s_P5YPU48-3" value="New VPN" style="rounded=0;whiteSpace=wrap;html=1;fillColor=#008a00;fontColor=#ffffff;strokeColor=#005700;" vertex="1" parent="1">
          <mxGeometry x="315" y="230" width="90" height="60" as="geometry" />
        </mxCell>
        <mxCell id="k3LRz-Mzqe3s_P5YPU48-6" value="NSSR" style="rounded=0;whiteSpace=wrap;html=1;fillColor=#647687;fontColor=#ffffff;strokeColor=#314354;verticalAlign=top;" vertex="1" parent="1">
          <mxGeometry x="40" y="420" width="730" height="240" as="geometry" />
        </mxCell>
        <mxCell id="k3LRz-Mzqe3s_P5YPU48-7" value="PreSale" style="rounded=0;whiteSpace=wrap;html=1;fillColor=#76608a;fontColor=#ffffff;strokeColor=#432D57;" vertex="1" parent="1">
          <mxGeometry x="60" y="520" width="130" height="60" as="geometry" />
        </mxCell>
        <mxCell id="k3LRz-Mzqe3s_P5YPU48-8" value="Coordination" style="rounded=0;whiteSpace=wrap;html=1;fillColor=#e3c800;strokeColor=#B09500;fontColor=#000000;" vertex="1" parent="1">
          <mxGeometry x="195" y="580" width="555" height="30" as="geometry" />
        </mxCell>
        <mxCell id="k3LRz-Mzqe3s_P5YPU48-9" value="Admin" style="rounded=0;whiteSpace=wrap;html=1;fillColor=#e3c800;strokeColor=#B09500;fontColor=#000000;" vertex="1" parent="1">
          <mxGeometry x="195" y="610" width="555" height="30" as="geometry" />
        </mxCell>
        <mxCell id="k3LRz-Mzqe3s_P5YPU48-10" value="New VM" style="rounded=0;whiteSpace=wrap;html=1;fillColor=#60a917;fontColor=#ffffff;strokeColor=#2D7600;" vertex="1" parent="1">
          <mxGeometry x="640" y="510" width="90" height="60" as="geometry" />
        </mxCell>
        <mxCell id="k3LRz-Mzqe3s_P5YPU48-11" value="New VM" style="rounded=0;whiteSpace=wrap;html=1;fillColor=#60a917;fontColor=#ffffff;strokeColor=#2D7600;" vertex="1" parent="1">
          <mxGeometry x="630" y="500" width="90" height="60" as="geometry" />
        </mxCell>
        <mxCell id="k3LRz-Mzqe3s_P5YPU48-12" value="New VM" style="rounded=0;whiteSpace=wrap;html=1;fillColor=#60a917;fontColor=#ffffff;strokeColor=#2D7600;" vertex="1" parent="1">
          <mxGeometry x="620" y="490" width="90" height="60" as="geometry" />
        </mxCell>
        <mxCell id="k3LRz-Mzqe3s_P5YPU48-14" style="edgeStyle=orthogonalEdgeStyle;rounded=0;orthogonalLoop=1;jettySize=auto;html=1;exitX=0.5;exitY=1;exitDx=0;exitDy=0;" edge="1" parent="1" source="k3LRz-Mzqe3s_P5YPU48-2" target="k3LRz-Mzqe3s_P5YPU48-12">
          <mxGeometry relative="1" as="geometry" />
        </mxCell>
        <mxCell id="k3LRz-Mzqe3s_P5YPU48-15" value="New VPN" style="rounded=0;whiteSpace=wrap;html=1;fillColor=#008a00;fontColor=#ffffff;strokeColor=#005700;" vertex="1" parent="1">
          <mxGeometry x="500" y="490" width="90" height="60" as="geometry" />
        </mxCell>
        <mxCell id="k3LRz-Mzqe3s_P5YPU48-17" style="edgeStyle=orthogonalEdgeStyle;rounded=0;orthogonalLoop=1;jettySize=auto;html=1;exitX=0.5;exitY=1;exitDx=0;exitDy=0;" edge="1" parent="1" source="k3LRz-Mzqe3s_P5YPU48-3" target="k3LRz-Mzqe3s_P5YPU48-15">
          <mxGeometry relative="1" as="geometry" />
        </mxCell>
        <mxCell id="k3LRz-Mzqe3s_P5YPU48-18" value="Requirement" style="rounded=0;whiteSpace=wrap;html=1;fillColor=#f0a30a;fontColor=#000000;strokeColor=#BD7000;" vertex="1" parent="1">
          <mxGeometry x="200" y="520" width="130" height="60" as="geometry" />
        </mxCell>
        <mxCell id="k3LRz-Mzqe3s_P5YPU48-19" value="Design" style="rounded=0;whiteSpace=wrap;html=1;fillColor=#f0a30a;fontColor=#000000;strokeColor=#BD7000;" vertex="1" parent="1">
          <mxGeometry x="340" y="520" width="130" height="60" as="geometry" />
        </mxCell>
      </root>
    </mxGraphModel>
  </diagram>
</mxfile>
